<svg width="328" height="88" viewBox="0 0 328 88" fill="none" xmlns="http://www.w3.org/2000/svg">
<path fill-rule="evenodd" clip-rule="evenodd" d="M7.97911 0.923876C7.91159 1.43191 7.77519 2.28538 7.67595 2.82025C7.57652 3.35513 7.31383 5.0181 7.0922 6.51575C6.87037 8.01341 6.6538 9.45757 6.61099 9.72501C6.45941 10.6705 5.33822 18.2035 5.16368 19.45C3.27116 32.9596 2.77185 36.893 1.85517 45.513C1.63315 47.599 1.40918 49.7872 1.35704 50.3755C1.30508 50.9639 1.0924 53.2833 0.884586 55.5298C0.315818 61.6744 0.12532 65.5205 0.0175207 73.0348C-0.0252877 76.0301 0.0130453 79.4436 0.103138 80.6203C0.411747 84.6548 0.492889 85.4729 0.70518 86.6924L0.918054 87.9141H40.8852H80.8521L80.8576 85.8232C80.8607 84.6731 80.8982 82.4194 80.9412 80.8148C80.9842 79.2102 81.0741 71.7268 81.1412 64.185C81.2084 56.6433 81.2983 49.1338 81.3411 47.4973C81.3991 45.2808 81.3162 44.7765 81.1412 44.735C81.0122 44.7047 79.6821 43.0818 77.9308 42.8315H76.4714L74.9813 43.1746C73.4854 43.6398 71.5296 44.9807 69.6974 46.7975C67.3527 49.1224 66.1577 50.6712 61.2344 57.7665C58.7443 61.3553 57.9327 62.0455 56.203 62.0455C52.5756 62.0455 47.8166 56.5503 46.3203 50.6342C46.0457 49.5481 45.6554 47.4676 45.4532 46.0106C45.0298 42.9602 44.7743 42.401 43.8032 42.401C43.0279 42.401 42.8415 42.5944 42.4197 43.8366C42.1546 44.6168 40.187 52.7938 39.6058 55.5298C39.4096 56.4535 38.7097 59.1444 37.8606 62.24C35.9496 69.2068 33.0975 75.787 31.3774 77.1979C31.0638 77.4552 30.2683 77.8854 29.6094 78.1538C26.6558 79.358 20.3914 78.7058 18.0015 76.9456C17.3125 76.438 17.0364 76.0564 16.7056 75.1539C15.3497 71.4555 14.4774 61.5412 13.9262 43.568C13.6615 34.941 13.5349 24.5963 13.53 11.2324L13.5261 0H10.8138H8.1017L7.97911 0.923876ZM22.9527 4.91113C23.0346 7.61235 23.1269 10.1724 23.1578 10.6003C23.1888 11.0282 23.2705 12.4723 23.3396 13.8095C23.4084 15.1467 23.5875 17.7724 23.7371 19.6445C23.8867 21.5166 24.0636 23.836 24.1301 24.7988C24.2348 26.3131 24.5549 29.6348 24.9176 32.9678C25.2389 35.9197 25.7666 39.9803 26.4722 44.9295C27.6613 53.2718 29.4544 59.517 30.6604 59.517C31.3578 59.517 31.6166 58.6865 32.7812 52.7095C33.2085 50.5165 33.683 48.1534 33.8358 47.458C34.5283 44.304 34.9708 42.4438 35.222 41.6294C35.3714 41.1446 35.7513 39.9163 36.0661 38.9C37.1638 35.3555 38.4832 32.4699 40.1393 29.9911C42.1103 27.0412 43.6736 26.119 46.3814 26.3091C48.9715 26.4907 52.0749 27.8388 52.9301 29.1536C53.7435 30.4043 53.9258 31.5623 54.0962 36.566C54.1601 38.4381 54.2465 40.4074 54.2883 40.9423C54.5547 44.3474 54.6438 45.2265 54.8993 46.9718C55.5194 51.2082 56.0016 52.6185 56.9074 52.8459C57.6036 53.0205 58.6594 51.7252 60.3029 48.6797C63.9636 41.8959 65.7693 39.7753 70.6339 36.7605C72.2879 35.8853 73.0153 35.5935 73.7317 35.4963C75.8368 35.399 76.8896 35.5338 78.5146 36.955C79.9601 38.2193 81.1971 40.5698 81.3127 40.4411C81.3958 40.3483 81.5662 29.3594 81.7563 11.8159L81.8846 0H52.344H22.8037L22.9527 4.91113Z" fill="url(#paint0_linear_1573_51)"/>
<path d="M147.775 12.0303L147.806 11H146.775H129.645H128.91L128.691 11.7018L113.537 60.2014H113.284L114.832 12.0321L114.865 11H113.833H96.6149H95.6243L95.615 11.9905L95 76.9905L94.9905 78H96H122.354H123.11L123.316 77.2722L132.609 44.4181L130.755 76.9431L130.695 78H131.754H158.107H158.828L159.056 77.3166L178.955 17.7061L179.596 77.0108L179.607 78H180.596H208.707H209.404L209.645 77.3461L233.627 12.3461L234.124 11H232.689H215.559H214.842L214.612 11.6787L198.152 60.2014H197.853L198.111 12.0054L198.117 11H197.111H181.194H179.893H179.806H178.883H162.588H161.851L161.633 11.7033L146.566 60.2014H146.313L147.775 12.0303ZM265.494 78H266.335L266.479 77.1721L268.939 63.0887L269.144 61.9167H267.954H244.894L253.391 12.1684L253.59 11H252.405H236.593H235.75L235.607 11.8308L224.451 76.8308L224.25 78H225.436H265.494ZM322.54 27.0833H323.381L323.525 26.2554L325.985 12.172L326.19 11H325H265.791H264.951L264.806 11.828L262.347 25.9113L262.142 27.0833H263.332H283.845L275.347 76.8316L275.148 78H276.333H292.233H293.077L293.219 77.1684L301.774 27.0833H322.54Z" stroke="white" stroke-width="2"/>
<defs>
<linearGradient id="paint0_linear_1573_51" x1="61.4134" y1="5.88913" x2="15.9549" y2="79.2255" gradientUnits="userSpaceOnUse">
<stop offset="0.0736605" stop-color="white"/>
<stop offset="0.803595" stop-color="white"/>
</linearGradient>
</defs>
</svg>
