<?xml version="1.0" encoding="UTF-8" standalone="no"?>
<svg
   width="364"
   height="128"
   viewBox="0 0 364 128"
   fill="none"
   version="1.1"
   id="svg4"
   xmlns="http://www.w3.org/2000/svg"
   xmlns:svg="http://www.w3.org/2000/svg">
  <defs
     id="defs4" />
  <g
     id="g1">
    <path
       d="m 140.641,36.812 c 5.143,0 9.554,0.212 13.232,0.635 3.678,0.423 6.771,1.058 9.277,1.905 2.539,0.813 4.558,1.839 6.055,3.076 1.497,1.237 2.653,2.653 3.467,4.248 0.814,1.562 1.335,3.32 1.562,5.273 0.261,1.953 0.391,4.069 0.391,6.348 0,2.279 -0.212,4.427 -0.635,6.445 -0.39,1.986 -1.107,3.809 -2.148,5.469 -1.042,1.66 -2.458,3.141 -4.248,4.443 -1.791,1.302 -4.069,2.409 -6.836,3.321 -2.767,0.911 -6.104,1.595 -10.01,2.05 -3.874,0.489 -8.415,0.733 -13.623,0.733 h -12.5 c -4.687,0 -8.789,-0.179 -12.305,-0.537 -3.515,-0.358 -6.543,-0.895 -9.082,-1.612 -2.539,-0.748 -4.6384,-1.676 -6.2985,-2.783 -1.6602,-1.139 -2.9948,-2.458 -4.004,-3.955 -0.9765,-1.53 -1.6601,-3.255 -2.0507,-5.176 -0.3907,-1.953 -0.586,-4.101 -0.586,-6.445 h 9.375 c 0,2.93 0.4232,5.225 1.2692,6.885 0.847,1.66 2.246,2.913 4.2,3.76 1.953,0.813 4.508,1.334 7.666,1.562 3.19,0.195 7.129,0.293 11.816,0.293 h 12.5 c 5.469,0 10.01,-0.26 13.623,-0.781 3.613,-0.521 6.494,-1.351 8.643,-2.49 2.148,-1.14 3.662,-2.621 4.541,-4.444 0.879,-1.855 1.318,-4.101 1.318,-6.738 0,-2.637 -0.309,-4.834 -0.928,-6.592 -0.586,-1.758 -1.774,-3.157 -3.564,-4.199 -1.758,-1.042 -4.248,-1.774 -7.471,-2.197 -3.223,-0.456 -7.438,-0.684 -12.646,-0.684 H 127.75 c -5.729,0 -10.645,-0.212 -14.746,-0.635 -4.069,-0.423 -7.487,-1.025 -10.254,-1.806 -2.7669,-0.814 -4.9805,-1.807 -6.6406,-2.979 -1.6602,-1.204 -2.9297,-2.572 -3.8086,-4.101 -0.8464,-1.53 -1.3998,-3.223 -1.6602,-5.0786 -0.2604,-1.888 -0.3906,-3.9225 -0.3906,-6.1035 0,-2.2787 0.1953,-4.3946 0.5859,-6.3477 0.4232,-1.9531 1.1882,-3.7109 2.295,-5.2734 1.1067,-1.5951 2.6204,-3.0111 4.541,-4.2481 1.9205,-1.2369 4.3781,-2.2623 7.3731,-3.0761 3.027,-0.8464 6.657,-1.4812 10.889,-1.9043 4.231,-0.4232 9.212,-0.6348 14.941,-0.6348 h 9.375 c 4.688,0 8.789,0.179 12.305,0.5371 3.515,0.3255 6.543,0.8626 9.082,1.6113 2.539,0.7162 4.638,1.6276 6.299,2.7344 1.692,1.0742 3.027,2.3763 4.003,3.9063 1.01,1.4974 1.709,3.2063 2.1,5.1269 0.391,1.9206 0.586,4.0527 0.586,6.3965 h -9.375 c 0,-2.9297 -0.423,-5.2246 -1.27,-6.8848 -0.846,-1.6601 -2.246,-2.8971 -4.199,-3.7109 -1.953,-0.8464 -4.524,-1.3672 -7.715,-1.5625 -3.19,-0.2279 -7.128,-0.3418 -11.816,-0.3418 h -9.375 c -6.25,0 -11.393,0.2279 -15.43,0.6836 -4.036,0.4232 -7.226,1.1556 -9.57,2.1973 -2.344,1.0416 -3.971,2.4414 -4.883,4.1992 -0.911,1.7578 -1.367,3.9551 -1.367,6.5918 0,1.6276 0.1139,3.0761 0.3418,4.3457 0.2282,1.2695 0.6832,2.3926 1.3672,3.3694 0.716,0.944 1.709,1.741 2.978,2.392 1.27,0.651 2.946,1.188 5.03,1.612 2.083,0.423 4.622,0.732 7.617,0.927 3.027,0.163 6.624,0.244 10.791,0.244 z m 95.81,34.376 c 4.134,0 7.634,-0.114 10.498,-0.342 2.865,-0.228 5.225,-0.684 7.08,-1.367 1.856,-0.717 3.288,-1.742 4.297,-3.077 1.009,-1.334 1.742,-3.092 2.197,-5.273 0.489,-2.214 0.765,-4.915 0.831,-8.106 0.097,-3.222 0.146,-7.063 0.146,-11.523 0,-4.46 -0.049,-8.285 -0.146,-11.4746 -0.066,-3.2227 -0.342,-5.9245 -0.831,-8.1055 -0.455,-2.2135 -1.188,-3.9876 -2.197,-5.3222 -1.009,-1.3347 -2.441,-2.3438 -4.297,-3.0274 -1.855,-0.7161 -4.215,-1.1881 -7.08,-1.416 -2.832,-0.2279 -6.331,-0.3418 -10.498,-0.3418 H 189.625 V 71.188 Z M 180.25,79 V 4 h 56.201 c 5.729,0 10.547,0.3418 14.453,1.0254 3.939,0.651 7.178,1.6601 9.717,3.0273 2.572,1.3672 4.541,3.0762 5.908,5.127 1.4,2.0508 2.409,4.4759 3.028,7.2754 0.651,2.7669 1.025,5.9082 1.123,9.4238 0.13,3.4831 0.195,7.3571 0.195,11.6211 0,4.264 -0.065,8.154 -0.195,11.67 -0.098,3.483 -0.472,6.624 -1.123,9.424 -0.619,2.767 -1.628,5.176 -3.028,7.226 -1.367,2.051 -3.336,3.76 -5.908,5.127 -2.539,1.367 -5.778,2.393 -9.717,3.076 C 246.998,78.674 242.18,79 236.451,79 Z m 182.188,0 h -9.376 V 64.938 c 0,-2.279 -0.048,-4.232 -0.146,-5.86 -0.065,-1.66 -0.342,-3.076 -0.83,-4.248 -0.456,-1.172 -1.188,-2.116 -2.197,-2.832 -1.009,-0.716 -2.442,-1.269 -4.297,-1.66 -1.856,-0.391 -4.216,-0.651 -7.08,-0.781 -2.832,-0.163 -6.332,-0.245 -10.498,-0.245 H 285.875 V 79 H 276.5 V 4 h 53.076 c 5.729,0 10.547,0.2116 14.453,0.6348 3.939,0.3906 7.178,0.9928 9.717,1.8066 2.572,0.8138 4.541,1.8229 5.908,3.0274 1.4,1.2044 2.409,2.6204 3.028,4.248 0.651,1.6276 1.025,3.4505 1.123,5.4687 0.13,2.0183 0.195,4.2481 0.195,6.6895 0,3.125 -0.228,5.876 -0.684,8.252 -0.423,2.344 -1.155,4.346 -2.197,6.006 -1.042,1.66 -2.425,2.995 -4.15,4.004 -1.726,0.976 -3.89,1.66 -6.494,2.051 2.604,0.39 4.687,1.074 6.25,2.05 1.562,0.977 2.767,2.246 3.613,3.809 0.846,1.562 1.4,3.418 1.66,5.566 0.293,2.149 0.44,4.59 0.44,7.325 z M 285.875,41.5 h 43.701 c 4.167,0 7.666,-0.065 10.498,-0.195 2.865,-0.163 5.225,-0.44 7.08,-0.83 1.856,-0.391 3.288,-0.944 4.297,-1.661 1.009,-0.716 1.742,-1.66 2.197,-2.832 0.489,-1.171 0.765,-2.571 0.831,-4.199 0.097,-1.66 0.146,-3.6294 0.146,-5.908 0,-2.1159 -0.049,-3.9388 -0.146,-5.4688 -0.066,-1.5299 -0.342,-2.8157 -0.831,-3.8574 -0.455,-1.0416 -1.188,-1.8717 -2.197,-2.4902 -1.009,-0.6185 -2.441,-1.0905 -4.297,-1.416 -1.855,-0.3581 -4.215,-0.586 -7.08,-0.6836 -2.832,-0.0977 -6.331,-0.1465 -10.498,-0.1465 h -43.701 z"
       fill="#ffffff"
       id="path2"
       clip-path="none"
       style="fill:#f9f9f9" />
    <path
       d="m 117.086,118 h -1.57 l -5.625,-18.094 -0.094,-1.242 -0.094,1.242 -5.625,18.094 h -1.594 L 94.4688,94 h 2.9295 l 5.7187,18.141 0.094,1.242 0.094,-1.242 L 108.93,94 h 1.734 l 5.602,18.141 0.093,1.242 0.094,-1.242 L 122.172,94 h 2.93 z m 30.302,-6.586 c 0,0.969 -0.188,1.883 -0.563,2.742 -0.359,0.86 -0.859,1.61 -1.5,2.25 -0.64,0.641 -1.39,1.149 -2.25,1.524 -0.859,0.359 -1.773,0.539 -2.742,0.539 h -1.922 c -0.968,0 -1.883,-0.18 -2.742,-0.539 -0.859,-0.375 -1.609,-0.883 -2.25,-1.524 -0.641,-0.64 -1.148,-1.39 -1.523,-2.25 -0.36,-0.859 -0.539,-1.773 -0.539,-2.742 v -10.828 c 0,-0.969 0.179,-1.883 0.539,-2.742 0.375,-0.86 0.882,-1.61 1.523,-2.25 0.641,-0.641 1.391,-1.141 2.25,-1.5 0.859,-0.375 1.774,-0.563 2.742,-0.563 h 1.922 c 0.969,0 1.883,0.188 2.742,0.563 0.86,0.359 1.61,0.859 2.25,1.5 0.641,0.64 1.141,1.39 1.5,2.25 0.375,0.859 0.563,1.773 0.563,2.742 v 5.648 h -13.149 v 5.344 c 0,0.578 0.11,1.125 0.329,1.641 0.218,0.5 0.515,0.937 0.89,1.312 0.375,0.375 0.813,0.672 1.313,0.891 0.515,0.219 1.062,0.328 1.64,0.328 h 1.922 c 0.578,0 1.117,-0.109 1.617,-0.328 0.516,-0.219 0.961,-0.516 1.336,-0.891 0.375,-0.375 0.672,-0.812 0.891,-1.312 0.219,-0.516 0.328,-1.063 0.328,-1.641 v -1.594 l 2.883,0.469 z m -2.883,-10.992 c 0,-0.578 -0.109,-1.117 -0.328,-1.617 -0.219,-0.516 -0.516,-0.961 -0.891,-1.336 -0.375,-0.375 -0.82,-0.672 -1.336,-0.891 -0.5,-0.219 -1.039,-0.328 -1.617,-0.328 h -1.922 c -0.578,0 -1.125,0.109 -1.64,0.328 -0.5,0.219 -0.938,0.516 -1.313,0.891 -0.375,0.375 -0.672,0.82 -0.89,1.336 -0.219,0.5 -0.329,1.039 -0.329,1.617 v 3.562 h 10.266 z m 27.56,10.992 c 0,0.969 -0.188,1.883 -0.563,2.742 -0.359,0.86 -0.859,1.61 -1.5,2.25 -0.64,0.641 -1.39,1.149 -2.25,1.524 -0.859,0.359 -1.773,0.539 -2.742,0.539 h -1.922 c -0.969,0 -1.883,-0.18 -2.742,-0.539 -0.859,-0.375 -1.609,-0.883 -2.25,-1.524 -0.641,-0.64 -1.148,-1.39 -1.523,-2.25 -0.36,-0.859 -0.54,-1.773 -0.54,-2.742 V 84.391 h 2.883 v 11.625 c 0.657,-0.782 1.446,-1.391 2.367,-1.828 0.922,-0.438 1.922,-0.657 3,-0.657 h 0.727 c 0.969,0 1.883,0.188 2.742,0.563 0.86,0.359 1.61,0.859 2.25,1.5 0.641,0.64 1.141,1.39 1.5,2.25 0.375,0.859 0.563,1.773 0.563,2.742 z m -2.883,-10.992 c 0,-0.578 -0.109,-1.117 -0.328,-1.617 -0.219,-0.516 -0.516,-0.961 -0.891,-1.336 -0.375,-0.375 -0.82,-0.672 -1.336,-0.891 -0.5,-0.219 -1.039,-0.328 -1.617,-0.328 h -1.922 c -0.578,0 -1.125,0.109 -1.64,0.328 -0.5,0.219 -0.938,0.516 -1.313,0.891 -0.375,0.375 -0.672,0.82 -0.891,1.336 -0.218,0.5 -0.328,1.039 -0.328,1.617 v 11.156 c 0,0.578 0.11,1.125 0.328,1.641 0.219,0.5 0.516,0.937 0.891,1.312 0.375,0.375 0.813,0.672 1.313,0.891 0.515,0.219 1.062,0.328 1.64,0.328 h 1.922 c 0.578,0 1.117,-0.109 1.617,-0.328 0.516,-0.219 0.961,-0.516 1.336,-0.891 0.375,-0.375 0.672,-0.812 0.891,-1.312 0.219,-0.516 0.328,-1.063 0.328,-1.641 z m 41.502,10.992 c 0,0.969 -0.187,1.883 -0.562,2.742 -0.36,0.86 -0.86,1.61 -1.5,2.25 -0.641,0.641 -1.391,1.149 -2.25,1.524 -0.86,0.359 -1.774,0.539 -2.743,0.539 h -0.726 c -1.078,0 -2.078,-0.219 -3,-0.657 -0.922,-0.437 -1.711,-1.046 -2.367,-1.828 v 11.625 h -2.883 V 94 h 0.961 l 1.57,2.438 c 0.656,-0.891 1.477,-1.594 2.461,-2.11 1,-0.531 2.086,-0.797 3.258,-0.797 h 0.726 c 0.969,0 1.883,0.188 2.743,0.563 0.859,0.359 1.609,0.859 2.25,1.5 0.64,0.64 1.14,1.39 1.5,2.25 0.375,0.859 0.562,1.773 0.562,2.742 z m -2.883,-10.992 c 0,-0.578 -0.109,-1.117 -0.328,-1.617 -0.219,-0.516 -0.515,-0.961 -0.89,-1.336 -0.375,-0.375 -0.821,-0.672 -1.336,-0.891 -0.5,-0.219 -1.039,-0.328 -1.618,-0.328 h -1.921 c -0.579,0 -1.125,0.109 -1.641,0.328 -0.5,0.219 -0.938,0.516 -1.313,0.891 -0.375,0.375 -0.671,0.82 -0.89,1.336 -0.219,0.5 -0.328,1.039 -0.328,1.617 v 11.156 c 0,0.578 0.109,1.125 0.328,1.641 0.219,0.5 0.515,0.937 0.89,1.312 0.375,0.375 0.813,0.672 1.313,0.891 0.516,0.219 1.062,0.328 1.641,0.328 h 1.921 c 0.579,0 1.118,-0.109 1.618,-0.328 0.515,-0.219 0.961,-0.516 1.336,-0.891 0.375,-0.375 0.671,-0.812 0.89,-1.312 0.219,-0.516 0.328,-1.063 0.328,-1.641 z M 220.291,118 V 84.391 h 2.882 V 118 Z m 27.583,0 -1.594,-2.391 c -0.656,0.86 -1.477,1.555 -2.461,2.086 -0.984,0.516 -2.062,0.774 -3.234,0.774 h -0.727 c -0.969,0 -1.883,-0.18 -2.742,-0.539 -0.859,-0.375 -1.609,-0.883 -2.25,-1.524 -0.641,-0.64 -1.149,-1.39 -1.524,-2.25 -0.359,-0.859 -0.539,-1.773 -0.539,-2.742 v -0.234 c 0,-0.969 0.18,-1.883 0.539,-2.742 0.375,-0.86 0.883,-1.61 1.524,-2.25 0.641,-0.641 1.391,-1.141 2.25,-1.5 0.859,-0.376 1.773,-0.563 2.742,-0.563 h 6.094 v -3.703 c 0,-0.578 -0.11,-1.117 -0.328,-1.617 -0.219,-0.516 -0.516,-0.961 -0.891,-1.336 -0.375,-0.375 -0.82,-0.672 -1.336,-0.891 -0.5,-0.219 -1.039,-0.328 -1.617,-0.328 h -1.688 c -0.578,0 -1.125,0.109 -1.64,0.328 -0.5,0.219 -0.938,0.516 -1.313,0.891 -0.375,0.375 -0.672,0.82 -0.89,1.336 -0.219,0.5 -0.328,1.039 -0.328,1.617 v 0.867 l -2.883,-0.469 v -0.234 c 0,-0.969 0.179,-1.883 0.539,-2.742 0.375,-0.86 0.883,-1.61 1.523,-2.25 0.641,-0.641 1.391,-1.141 2.25,-1.5 0.86,-0.375 1.774,-0.563 2.742,-0.563 h 1.688 c 0.969,0 1.883,0.188 2.742,0.563 0.86,0.359 1.61,0.859 2.25,1.5 0.641,0.64 1.141,1.39 1.5,2.25 0.375,0.859 0.563,1.773 0.563,2.742 V 118 Z m -1.922,-11.625 h -6.094 c -0.578,0 -1.125,0.109 -1.641,0.328 -0.5,0.219 -0.937,0.524 -1.312,0.914 -0.375,0.375 -0.672,0.821 -0.891,1.336 -0.218,0.5 -0.328,1.039 -0.328,1.617 v 1.008 c 0,0.578 0.11,1.125 0.328,1.641 0.219,0.5 0.516,0.937 0.891,1.312 0.375,0.375 0.812,0.672 1.312,0.891 0.516,0.219 1.063,0.328 1.641,0.328 h 1.922 c 0.578,0 1.117,-0.109 1.617,-0.328 0.516,-0.219 0.961,-0.516 1.336,-0.891 0.375,-0.375 0.672,-0.812 0.891,-1.312 0.218,-0.516 0.328,-1.063 0.328,-1.641 z M 266.223,118 c -0.875,0 -1.704,-0.164 -2.485,-0.492 -0.765,-0.328 -1.437,-0.781 -2.015,-1.36 -0.563,-0.578 -1.016,-1.25 -1.36,-2.015 -0.328,-0.766 -0.492,-1.586 -0.492,-2.461 v -14.93 h -4.313 V 94 h 4.313 v -5.766 l 2.883,-0.468 V 94 h 6.094 v 2.742 h -6.094 v 15.07 c 0,0.485 0.086,0.938 0.258,1.36 0.187,0.406 0.437,0.766 0.75,1.078 0.312,0.312 0.679,0.562 1.101,0.75 0.422,0.172 0.875,0.258 1.36,0.258 h 2.625 V 118 Z m 19.075,-30.867 c -0.485,0 -0.938,0.094 -1.36,0.281 -0.406,0.172 -0.765,0.414 -1.078,0.727 -0.312,0.312 -0.562,0.679 -0.75,1.101 -0.172,0.422 -0.257,0.875 -0.257,1.36 V 94 h 5.601 v 2.742 h -5.601 V 118 H 278.97 V 96.742 h -4.336 V 94 h 4.336 v -3.258 c 0,-0.875 0.164,-1.695 0.492,-2.461 0.328,-0.781 0.781,-1.461 1.359,-2.039 0.578,-0.578 1.25,-1.031 2.016,-1.359 0.766,-0.328 1.586,-0.492 2.461,-0.492 h 2.648 v 2.742 z m 24.442,24.281 c 0,0.969 -0.187,1.883 -0.562,2.742 -0.36,0.86 -0.86,1.61 -1.5,2.25 -0.641,0.641 -1.391,1.149 -2.25,1.524 -0.86,0.359 -1.774,0.539 -2.742,0.539 h -1.922 c -0.969,0 -1.883,-0.18 -2.742,-0.539 -0.86,-0.375 -1.61,-0.883 -2.25,-1.524 -0.641,-0.64 -1.149,-1.39 -1.524,-2.25 -0.359,-0.859 -0.539,-1.773 -0.539,-2.742 v -10.828 c 0,-0.969 0.18,-1.883 0.539,-2.742 0.375,-0.86 0.883,-1.61 1.524,-2.25 0.64,-0.641 1.39,-1.141 2.25,-1.5 0.859,-0.375 1.773,-0.563 2.742,-0.563 h 1.922 c 0.968,0 1.882,0.188 2.742,0.563 0.859,0.359 1.609,0.859 2.25,1.5 0.64,0.64 1.14,1.39 1.5,2.25 0.375,0.859 0.562,1.773 0.562,2.742 z m -2.883,-10.992 c 0,-0.578 -0.109,-1.117 -0.328,-1.617 -0.218,-0.516 -0.515,-0.961 -0.89,-1.336 -0.375,-0.375 -0.821,-0.672 -1.336,-0.891 -0.5,-0.219 -1.039,-0.328 -1.617,-0.328 h -1.922 c -0.578,0 -1.125,0.109 -1.641,0.328 -0.5,0.219 -0.937,0.516 -1.312,0.891 -0.375,0.375 -0.672,0.82 -0.891,1.336 -0.219,0.5 -0.328,1.039 -0.328,1.617 v 11.156 c 0,0.578 0.109,1.125 0.328,1.641 0.219,0.5 0.516,0.937 0.891,1.312 0.375,0.375 0.812,0.672 1.312,0.891 0.516,0.219 1.063,0.328 1.641,0.328 h 1.922 c 0.578,0 1.117,-0.109 1.617,-0.328 0.515,-0.219 0.961,-0.516 1.336,-0.891 0.375,-0.375 0.672,-0.812 0.89,-1.312 0.219,-0.516 0.328,-1.063 0.328,-1.641 z m 18.584,-3.68 c -0.578,0 -1.125,0.11 -1.641,0.328 -0.5,0.219 -0.937,0.516 -1.312,0.891 -0.375,0.375 -0.672,0.82 -0.891,1.336 -0.219,0.5 -0.328,1.039 -0.328,1.617 V 118 h -2.883 V 94 h 0.961 l 1.57,2.438 c 0.656,-0.891 1.477,-1.594 2.461,-2.11 1,-0.531 2.086,-0.797 3.258,-0.797 h 1.687 v 3.211 z M 360.383,118 v -17.578 c 0,-0.578 -0.109,-1.117 -0.328,-1.617 -0.219,-0.516 -0.516,-0.961 -0.891,-1.336 -0.375,-0.375 -0.82,-0.672 -1.336,-0.891 -0.5,-0.219 -1.039,-0.328 -1.617,-0.328 h -1.429 c -0.579,0 -1.125,0.109 -1.641,0.328 -0.5,0.219 -0.945,0.516 -1.336,0.891 -0.375,0.375 -0.672,0.82 -0.891,1.336 -0.218,0.5 -0.328,1.039 -0.328,1.617 V 118 h -2.859 v -17.578 c 0,-0.578 -0.109,-1.117 -0.328,-1.617 -0.219,-0.516 -0.524,-0.961 -0.914,-1.336 -0.375,-0.375 -0.821,-0.672 -1.336,-0.891 -0.5,-0.219 -1.039,-0.328 -1.617,-0.328 h -1.43 c -0.578,0 -1.125,0.109 -1.641,0.328 -0.5,0.219 -0.937,0.516 -1.312,0.891 -0.375,0.375 -0.672,0.82 -0.891,1.336 -0.219,0.5 -0.328,1.039 -0.328,1.617 V 118 h -2.883 V 94 h 0.961 l 1.57,2.438 c 0.657,-0.891 1.477,-1.594 2.461,-2.11 1,-0.531 2.086,-0.797 3.258,-0.797 h 0.235 c 1.359,0 2.586,0.336 3.679,1.008 1.094,0.672 1.938,1.563 2.532,2.672 0.296,-0.547 0.664,-1.047 1.101,-1.5 0.438,-0.453 0.922,-0.836 1.453,-1.149 0.531,-0.328 1.11,-0.578 1.735,-0.75 0.625,-0.187 1.273,-0.281 1.945,-0.281 h 0.234 c 0.969,0 1.883,0.188 2.742,0.563 0.86,0.359 1.61,0.859 2.25,1.5 0.641,0.64 1.141,1.39 1.5,2.25 0.375,0.859 0.563,1.773 0.563,2.742 V 118 Z"
       fill="#ffffff"
       id="path3"
       clip-path="none"
       style="fill:#f9f9f9" />
    <path
       d="M 77,94 H 0 v 24 h 77 z"
       fill="#ffffff"
       id="path4"
       clip-path="none"
       style="fill:#f9f9f9" />
    <path
       id="rect19"
       style="display:inline;fill:#f9f9f9;stroke-width:0.25894"
       d="M 7.8898751,0 C 6.8180348,7.1232855 5.6266674,14.320185 4.6944112,21.340568 3.5090755,29.166585 2.5480959,37.282548 1.6680613,45.234246 0.57511216,55.64029 -0.2177995,66.124397 0.05361419,76.609264 0.15152714,79.429735 0.33701606,82.319183 1.0034051,85.102051 H 78.811479 v -45.95029 l -0.07079,3.828697 c -2.48921,-0.216194 -4.768849,-2.480572 -7.153908,-0.903861 -5.114875,2.749734 -8.357715,8.03532 -11.580361,12.646261 -1.690287,2.055295 -2.923344,5.706764 -6.202149,5.229492 -2.774928,-0.601792 -4.839414,-3.143435 -6.284741,-5.117973 -2.771733,-3.695003 -3.164695,-8.414828 -3.891584,-12.814514 -0.146556,-1.737391 -2.706353,-1.217548 -2.585867,0.416709 -1.890392,6.776974 -3.057755,13.67453 -5.213031,20.387796 -1.322759,4.018136 -2.68087,8.379448 -5.313319,11.628921 C 27.101468,76.94616 22.333844,76.286932 18.579442,74.96 15.644676,73.919662 15.799298,70.375022 15.226663,67.91691 13.862985,56.536928 13.648496,45.009908 13.366411,33.538804 13.212099,22.367433 13.068685,11.170841 13.24056,0 Z M 78.811479,39.151761 V 0 H 22.138695 c -0.01226,9.0890103 0.738414,18.084262 1.433535,27.051338 0.739154,6.287581 1.335043,12.744015 2.471814,18.955698 0.733156,3.763787 1.106798,7.811672 3.077477,11.151557 1.52835,1.398932 1.687348,-1.781465 2.005768,-2.76637 1.732996,-8.457429 2.922491,-17.38609 7.466571,-24.936453 1.365949,-2.543215 4.103505,-4.667637 7.132276,-3.815003 2.550421,0.506191 5.959184,1.505651 6.211981,4.576053 0.652595,4.810507 0.331133,9.719781 1.054012,14.504844 0.3249,1.743412 0.341589,4.542407 1.657709,6.266396 1.608016,0.699725 2.492623,-1.989114 3.250524,-2.936578 1.842249,-3.578736 3.933272,-7.257601 6.98086,-10.024663 2.468724,-1.990715 6.251323,-4.481664 9.254063,-2.099228 1.444643,1.231669 2.859934,2.562438 4.676194,3.22417 z" />
  </g>
</svg>
